<svg width="32" height="32" viewBox="0 0 32 32" fill="none" xmlns="http://www.w3.org/2000/svg">
<rect width="32" height="32" transform="matrix(1 0 0 -1 0 32)" fill="url(#paint0_linear_200_3)"/>
<path d="M16.5742 14.1377L16.6248 13.139L16.6215 13.1388L16.5742 14.1377ZM26.2529 18.2412L25.2529 18.2382V18.2412H26.2529ZM16.456 23.3438L16.4539 24.3438H16.456V23.3438ZM6.65912 18.2412V17.2412H5.53206L5.66624 18.3603L6.65912 18.2412ZM12.5566 18.2412L13.4228 17.7415L13.1341 17.2412H12.5566V18.2412ZM16.3378 17.4033L16.2872 18.402L16.2905 18.4022L16.3378 17.4033ZM6.65912 13.3105L7.65912 13.3135V13.3105H6.65912ZM16.456 8.19727L16.4624 7.19727H16.456V8.19727ZM26.2529 13.3105V14.3105H27.379L27.2459 13.1923L26.2529 13.3105ZM20.3554 13.3105L19.4852 13.8031L19.7724 14.3105H20.3554V13.3105ZM11.5566 13.3105C11.5566 14.0383 12.0928 14.4252 12.4217 14.5881C12.7613 14.7564 13.1736 14.8482 13.5591 14.9092C14.3471 15.0339 15.416 15.0839 16.5268 15.1366L16.6215 13.1388C15.4657 13.084 14.5259 13.0373 13.8717 12.9338C13.5361 12.8807 13.369 12.8255 13.3095 12.796C13.2393 12.7612 13.5566 12.8997 13.5566 13.3105H11.5566ZM16.5236 15.1364C18.5699 15.2401 20.868 15.3598 22.6534 15.87C23.5419 16.1238 24.2081 16.4497 24.6388 16.8414C25.0359 17.2024 25.2547 17.6344 25.2529 18.2382L27.2529 18.2442C27.2564 17.0379 26.7716 16.0775 25.9843 15.3616C25.2307 14.6764 24.2319 14.2409 23.2029 13.9469C21.1534 13.3613 18.6067 13.2394 16.6248 13.139L16.5236 15.1364ZM25.2529 18.2412C25.2529 19.0668 25.0217 19.6814 24.6457 20.1649C24.2588 20.6624 23.6704 21.0817 22.8696 21.4169C21.244 22.0975 18.9595 22.3438 16.456 22.3438V24.3438C19.0229 24.3438 21.6368 24.1012 23.642 23.2618C24.6566 22.837 25.5668 22.2385 26.2245 21.3926C26.8932 20.5326 27.2529 19.4781 27.2529 18.2412H25.2529ZM16.4581 22.3438C13.9271 22.3384 11.7903 22.1756 10.2396 21.5425C9.48494 21.2343 8.90555 20.8283 8.48676 20.3032C8.07078 19.7817 7.76754 19.0857 7.65201 18.1222L5.66624 18.3603C5.81926 19.6365 6.24246 20.6968 6.9232 21.5503C7.60112 22.4003 8.4887 22.9878 9.48364 23.3941C11.4322 24.1897 13.9253 24.3384 16.4539 24.3437L16.4581 22.3438ZM6.65912 19.2412H12.5566V17.2412H6.65912V19.2412ZM11.6904 18.7409C12.1751 19.581 12.9564 20.0562 13.7871 20.3176C14.6038 20.5747 15.5355 20.6484 16.456 20.6484V18.6484C15.6148 18.6484 14.9191 18.5772 14.3876 18.4099C13.8701 18.247 13.5826 18.0186 13.4228 17.7415L11.6904 18.7409ZM16.456 20.6484C17.3657 20.6484 18.4467 20.5752 19.3325 20.3266C19.7714 20.2034 20.2411 20.0162 20.6197 19.7111C21.0238 19.3856 21.3554 18.8928 21.3554 18.2412H19.3554C19.3554 18.1482 19.4184 18.1106 19.365 18.1537C19.2861 18.2172 19.1092 18.312 18.7921 18.401C18.1659 18.5767 17.2973 18.6484 16.456 18.6484V20.6484ZM21.3554 18.2412C21.3554 17.5156 20.8219 17.1279 20.4939 16.9637C20.1547 16.794 19.7426 16.7003 19.3565 16.6377C18.567 16.5098 17.4982 16.4572 16.3852 16.4044L16.2905 18.4022C17.4441 18.4569 18.384 18.5063 19.0367 18.612C19.3717 18.6663 19.539 18.7223 19.5989 18.7523C19.6701 18.7879 19.3554 18.6499 19.3554 18.2412H21.3554ZM16.3884 16.4046C14.3421 16.3009 12.0437 16.1812 10.2579 15.6722C9.36919 15.4189 8.70281 15.0938 8.27213 14.7032C7.87524 14.3434 7.65733 13.9136 7.65912 13.3135L5.65913 13.3076C5.65554 14.5122 6.14125 15.4708 6.92869 16.1849C7.68234 16.8682 8.681 17.3024 9.70973 17.5956C11.7589 18.1797 14.3052 18.3016 16.2872 18.402L16.3884 16.4046ZM7.65912 13.3105C7.65912 12.485 7.89034 11.8694 8.26674 11.3846C8.654 10.8859 9.24277 10.4654 10.0435 10.129C11.669 9.44607 13.9534 9.19727 16.456 9.19727V7.19727C13.8883 7.19727 11.2742 7.4426 9.26887 8.28509C8.2542 8.71137 7.34443 9.31138 6.68701 10.1581C6.01873 11.0188 5.65912 12.0736 5.65912 13.3105H7.65912ZM16.4496 9.19725C18.9861 9.2134 21.1225 9.37069 22.6742 10.0006C23.4285 10.3069 24.0068 10.7111 24.4249 11.2358C24.8403 11.7573 25.1441 12.4561 25.2599 13.4288L27.2459 13.1923C27.0931 11.9091 26.6705 10.8449 25.9892 9.98966C25.3105 9.13776 24.4219 8.55164 23.4265 8.14754C21.4789 7.35685 18.9855 7.21336 16.4624 7.19729L16.4496 9.19725ZM26.2529 12.3105H20.3554V14.3105H26.2529V12.3105ZM21.2257 12.8179C20.7413 11.9623 19.9566 11.4845 19.1214 11.225C18.3037 10.9709 17.3712 10.9033 16.456 10.9033V12.9033C17.3025 12.9033 17.9975 12.9701 18.5279 13.1349C19.0409 13.2943 19.325 13.5201 19.4852 13.8031L21.2257 12.8179ZM16.456 10.9033C15.5534 10.9033 14.4713 10.9675 13.5842 11.2118C13.1442 11.3329 12.6708 11.5196 12.2892 11.8295C11.8792 12.1625 11.5566 12.6602 11.5566 13.3105H13.5566C13.5566 13.3862 13.5025 13.4206 13.5501 13.382C13.626 13.3203 13.7992 13.227 14.1151 13.14C14.74 12.968 15.6076 12.9033 16.456 12.9033V10.9033Z" fill="#29467E"/>
<defs>
<linearGradient id="paint0_linear_200_3" x1="32" y1="0" x2="-6.34501" y2="19.5638" gradientUnits="userSpaceOnUse">
<stop stop-color="#0D0C0C"/>
<stop offset="0.25" stop-color="#1F1E1E"/>
<stop offset="0.481667" stop-color="#302D39"/>
<stop offset="0.776042" stop-color="#16141C"/>
<stop offset="1" stop-color="#0E0E0E"/>
</linearGradient>
</defs>
</svg>
