<svg width="100" height="100" viewBox="0 0 100 100" fill="none" xmlns="http://www.w3.org/2000/svg">
<circle cx="50" cy="50" r="50" fill="#29467E"/>
<path d="M50.8438 44.2188L51.0968 39.2252L51.0886 39.2247L51.0805 39.2244L50.8438 44.2188ZM79 56.1562L74 56.1414L74 56.1488V56.1562H79ZM50.5 71L50.4894 76H50.5V71ZM22 56.1562V51.1562H16.3647L17.0356 56.7515L22 56.1562ZM39.1562 56.1562L43.4872 53.6576L42.0441 51.1562H39.1562V56.1562ZM50.1562 53.7188L49.9032 58.7123L49.9114 58.7128L49.9195 58.7131L50.1562 53.7188ZM22 41.8125L27 41.8274L27 41.8199V41.8125H22ZM50.5 26.9375L50.5318 21.9376L50.5159 21.9375H50.5V26.9375ZM79 41.8125V46.8125H84.6305L83.9649 41.2214L79 41.8125ZM61.8438 41.8125L57.4925 44.2755L58.9285 46.8125H61.8438V41.8125ZM34.1562 41.8125C34.1562 45.1199 36.6083 46.7947 37.8357 47.4028C39.1164 48.0372 40.5723 48.3426 41.7456 48.5284C44.178 48.9134 47.4225 49.0622 50.607 49.2131L51.0805 39.2244C47.6713 39.0628 45.072 38.9304 43.309 38.6513C42.3847 38.505 42.155 38.3827 42.2746 38.442C42.3409 38.4748 44.1562 39.427 44.1562 41.8125H34.1562ZM50.5907 49.2123C56.6112 49.5174 63.0365 49.8634 67.9545 51.2686C70.3922 51.965 71.9826 52.7986 72.8979 53.631C73.645 54.3103 74.0034 55.0147 74 56.1414L84 56.1711C84.0123 52.0322 82.3237 48.6858 79.6255 46.2323C77.0955 43.9318 73.8422 42.5506 70.7017 41.6533C64.4635 39.871 56.7951 39.5139 51.0968 39.2252L50.5907 49.2123ZM74 56.1562C74 58.1278 73.4617 59.4558 72.674 60.4688C71.8316 61.5521 70.4563 62.5844 68.3504 63.466C64.0181 65.2797 57.7165 66 50.5 66V76C58.0335 76 65.9819 75.2985 72.2121 72.6903C75.3875 71.3609 78.3715 69.4323 80.5682 66.6074C82.8195 63.7121 84 60.1847 84 56.1562H74ZM50.5106 66C43.1451 65.9844 37.3014 65.496 33.2064 63.8241C31.2621 63.0303 29.8988 62.0388 28.9514 60.851C28.0181 59.6808 27.2613 58.0371 26.9644 55.561L17.0356 56.7515C17.5199 60.7911 18.8765 64.2567 21.1336 67.0865C23.3766 69.8987 26.2809 71.7979 29.4264 73.0822C35.5111 75.5665 43.1362 75.9844 50.4894 76L50.5106 66ZM22 61.1562H39.1562V51.1562H22V61.1562ZM34.8253 58.6549C36.5749 61.6874 39.3641 63.3275 42.1083 64.1912C44.782 65.0328 47.739 65.25 50.5 65.25V55.25C48.136 55.25 46.3586 55.0454 45.1105 54.6525C43.9327 54.2818 43.6126 53.8751 43.4872 53.6576L34.8253 58.6549ZM50.5 65.25C53.2178 65.25 56.5848 65.0352 59.433 64.2359C60.8371 63.8419 62.5095 63.2004 63.9243 62.0607C65.4667 60.8182 66.8438 58.8305 66.8438 56.1562H56.8438C56.8438 55.107 57.4396 54.4435 57.6509 54.2733C57.7346 54.2058 57.5262 54.3847 56.731 54.6079C55.1809 55.0429 52.8759 55.25 50.5 55.25V65.25ZM66.8438 56.1562C66.8438 52.8594 64.405 51.1819 63.1824 50.5701C61.9036 49.9302 60.4488 49.6182 59.2723 49.4276C56.8326 49.0324 53.5885 48.8758 50.393 48.7244L49.9195 58.7131C53.3177 58.8742 55.9174 59.0145 57.673 59.2989C58.5942 59.4482 58.825 59.5718 58.7073 59.5129C58.6458 59.4821 56.8438 58.5312 56.8438 56.1562H66.8438ZM50.4093 48.7252C44.3892 48.4201 37.9621 48.0742 33.0424 46.672C30.6033 45.9768 29.0121 45.1449 28.0969 44.315C27.3506 43.6383 26.9967 42.941 27 41.8274L17 41.7976C16.9877 45.934 18.6807 49.2757 21.3797 51.7231C23.9098 54.0172 27.1623 55.3943 30.3014 56.289C36.5379 58.0665 44.2045 58.4236 49.9032 58.7123L50.4093 48.7252ZM27 41.8125C27 39.8408 27.5384 38.5094 28.3282 37.4922C29.1723 36.405 30.5495 35.3694 32.6554 34.4847C36.987 32.6649 43.2878 31.9375 50.5 31.9375V21.9375C42.9622 21.9375 35.013 22.6476 28.7821 25.2653C25.6067 26.5993 22.6245 28.5325 20.4296 31.3594C18.1803 34.2562 17 37.7842 17 41.8125H27ZM50.4682 31.9374C57.8608 31.9845 63.7027 32.4565 67.8028 34.121C69.7451 34.9096 71.103 35.8952 72.0468 37.0798C72.9772 38.2478 73.7369 39.8989 74.0351 42.4036L83.9649 41.2214C83.4819 37.1636 82.1283 33.6858 79.8683 30.8489C77.6216 28.0287 74.7119 26.1334 71.5644 24.8555C65.4848 22.3873 57.8579 21.9843 50.5318 21.9376L50.4682 31.9374ZM79 36.8125H61.8438V46.8125H79V36.8125ZM66.195 39.3495C64.4472 36.2617 61.6407 34.6083 58.8744 33.7487C56.1952 32.9161 53.2343 32.7188 50.5 32.7188V42.7188C52.8907 42.7188 54.6642 42.912 55.9068 43.2982C57.0624 43.6573 57.3653 44.0508 57.4925 44.2755L66.195 39.3495ZM50.5 32.7188C47.8178 32.7188 44.4456 32.9051 41.5908 33.6911C40.1809 34.0792 38.4899 34.7199 37.0602 35.881C35.4887 37.1574 34.1562 39.1616 34.1562 41.8125H44.1562C44.1562 42.7915 43.6051 43.4481 43.3646 43.6434C43.266 43.7235 43.4558 43.5497 44.2451 43.3324C45.7888 42.9074 48.0884 42.7188 50.5 42.7188V32.7188Z" fill="url(#paint0_linear_210_12)"/>
<defs>
<linearGradient id="paint0_linear_210_12" x1="50.5" y1="13" x2="50.5" y2="87" gradientUnits="userSpaceOnUse">
<stop/>
<stop offset="1" stop-color="#29467E"/>
</linearGradient>
</defs>
</svg>
